<svg xmlns="http://www.w3.org/2000/svg" viewBox="0 0 367.03 355.4"><defs><style>.cls-1{fill:none;stroke:#660658;stroke-miterlimit:10;stroke-width:17px;}.cls-2{font-size:126px;font-family:TheSimsSans-Bold, The Sims Sans;font-weight:700;}.cls-2,.cls-4{fill:#fff;}.cls-3{fill:#660658;}</style></defs><title>logo-white</title><g id="Layer_2" data-name="Layer 2"><g id="Layer_1-2" data-name="Layer 1"><circle class="cls-1" cx="177.7" cy="177.7" r="169.2"/><text class="cls-2" transform="translate(9.5 164.18)">C</text><text class="cls-2" transform="translate(8.5 273.34)">G</text><text class="cls-2" transform="translate(217.3 273.34)">ist</text><text class="cls-2" transform="translate(210.15 164.18)">de</text><polygon class="cls-3" points="114.36 83.53 202.11 92.31 210.15 298.52 104.85 288.29 114.36 83.53"/><path class="cls-4" d="M136.53,251.22c15.41-5.48,22.83-14.24,22.53-25.28l-.87-20.75,10.49,17.49a17.52,17.52,0,0,1-11.49,4c-9.86,0-18.83-6.35-18.83-17.8,0-10.78,8.69-17.85,19.55-17.85,14.14,0,21.54,11.15,21.54,29.77,0,22.09-12.6,38-36.61,45.23Zm.24-120.54c0-11.33,8.26-20.42,20.22-20.42s20.23,9.09,20.23,20.42c0,11.5-8.27,20.41-20.23,20.41S136.77,142.18,136.77,130.68Z"/></g></g></svg>